<svg xmlns="http://www.w3.org/2000/svg"  viewBox="0 0 50 50" width="100px" height="100px"><path d="M 25.039062 4 C 13.430829 4 4 13.430838 4 25.039062 C 4 36.647289 13.430829 46.080078 25.039062 46.080078 C 36.647296 46.080078 46.080078 36.647288 46.080078 25.039062 C 46.080078 13.430838 36.647296 4 25.039062 4 z M 24.871094 6.0078125 A 0.50005 0.50005 0 0 0 24.580078 6.2851562 L 23.595703 8.5800781 L 21.328125 8.5800781 A 0.50005 0.50005 0 0 0 20.974609 9.4335938 L 22.554688 11.013672 L 21.841797 12.203125 L 18.503906 11.201172 A 0.50005 0.50005 0 0 0 17.884766 11.837891 L 18.382812 13.328125 C 17.79808 13.222898 16.957914 13.037109 15.763672 13.037109 A 0.50005 0.50005 0 0 0 15.410156 13.890625 C 15.888448 14.368487 16.444195 15.273484 16.851562 16.042969 C 17.030355 16.380693 17.064391 16.473539 17.150391 16.658203 A 1.0001 1.0001 0 0 0 16.958984 17.410156 C 15.941644 17.021943 14.802772 17.060017 13.847656 17.267578 C 13.03661 17.443831 12.718629 17.599849 12.402344 17.726562 C 12.350309 17.37717 12.335729 17.03068 12.050781 16.318359 C 11.849207 15.814458 11.571015 15.293615 11.152344 14.875 C 10.733672 14.456385 10.148739 14.148437 9.453125 14.148438 A 0.50005 0.50005 0 0 0 9.4277344 14.150391 C 12.836517 9.2685475 18.46887 6.0635618 24.871094 6.0078125 z M 25.21875 6.0097656 C 31.643549 6.0696382 37.296612 9.2967379 40.699219 14.210938 A 0.50005 0.50005 0 0 0 40.634766 14.207031 C 39.938141 14.207031 39.35396 14.518052 38.935547 14.939453 C 38.517134 15.360854 38.2385 15.885472 38.037109 16.392578 C 37.751679 17.111298 37.735316 17.461808 37.683594 17.8125 C 37.366205 17.684501 37.051442 17.5268 36.242188 17.349609 C 35.281804 17.139329 34.1333 17.100437 33.111328 17.498047 A 1.0001 1.0001 0 0 0 32.957031 16.6875 C 33.041554 16.505274 33.068786 16.426108 33.236328 16.107422 C 33.643939 15.332094 34.201487 14.419137 34.679688 13.9375 A 0.50005 0.50005 0 0 0 34.324219 13.085938 C 33.128634 13.085938 32.287226 13.272896 31.703125 13.378906 L 32.201172 11.875 A 0.50005 0.50005 0 0 0 31.582031 11.238281 L 28.246094 12.246094 L 27.53125 11.046875 L 29.113281 9.453125 A 0.50005 0.50005 0 0 0 28.759766 8.5996094 L 26.818359 8.5996094 L 26.40625 8.3984375 L 25.507812 6.2890625 A 0.50005 0.50005 0 0 0 25.361328 6.0898438 A 0.50005 0.50005 0 0 0 25.359375 6.0898438 A 0.50005 0.50005 0 0 0 25.277344 6.0351562 A 0.50005 0.50005 0 0 0 25.21875 6.0097656 z M 22.535156 9.5800781 L 22.767578 9.5800781 L 22.646484 9.6914062 L 22.535156 9.5800781 z M 41.119141 14.861328 C 42.74278 17.422892 43.767646 20.394149 44.007812 23.59375 C 43.125786 22.748318 42.390481 21.566929 41.878906 20.265625 C 41.14464 18.397853 40.872921 16.318066 41.119141 14.861328 z M 8.953125 14.875 C 9.0277287 16.680374 8.7368339 18.44531 8.1816406 19.988281 C 7.8970672 20.619651 7.5645555 21.319047 7.1894531 22.080078 C 6.8567396 22.602764 6.4857194 23.066138 6.0800781 23.457031 C 6.3382981 20.31448 7.3575705 17.397294 8.953125 14.875 z M 9.9140625 15.349609 C 9.9252967 15.35433 9.9377439 15.357075 9.9492188 15.361328 C 9.93926 15.398268 9.9194809 15.45964 9.9082031 15.5 C 9.9082639 15.449546 9.9144762 15.400113 9.9140625 15.349609 z M 40.136719 15.425781 C 40.086626 16.084383 40.114518 16.78905 40.193359 17.507812 C 40.049297 16.693701 39.983879 15.984724 39.957031 15.486328 C 40.01817 15.468323 40.080166 15.452001 40.136719 15.425781 z M 18.025391 16.158203 L 18.039062 16.175781 C 18.037692 16.176281 18.036527 16.177234 18.035156 16.177734 C 18.032025 16.171325 18.028554 16.164664 18.025391 16.158203 z M 25.041016 17.134766 C 26.234127 17.134766 27.098486 17.390507 27.626953 17.830078 C 28.142121 18.258587 28.471753 18.908205 28.488281 20.130859 C 28.468708 20.132608 28.451963 20.140625 28.431641 20.140625 C 28.111641 20.140625 27.939297 19.677734 27.279297 19.677734 C 26.619297 19.677734 26.088531 20.234375 25.519531 20.234375 C 25.717531 20.534375 26.377641 21.496094 27.306641 21.496094 C 27.825487 21.496094 28.145674 21.178545 28.431641 21.072266 C 28.298622 22.142861 27.938594 23.27682 27.410156 24.15625 C 26.737974 25.274903 25.909052 25.896484 25.041016 25.896484 C 24.17298 25.896484 23.344058 25.274903 22.671875 24.15625 C 22.1405 23.271931 21.781524 22.130482 21.650391 21.054688 C 21.925003 21.158785 22.233897 21.462891 22.732422 21.462891 C 23.628422 21.462891 24.264078 20.536094 24.455078 20.246094 C 23.906078 20.246094 23.394813 19.708984 22.757812 19.708984 C 22.120813 19.708984 21.954484 20.154297 21.646484 20.154297 C 21.627753 20.154297 21.611819 20.148029 21.59375 20.146484 C 21.607364 18.912639 21.937504 18.260588 22.455078 17.830078 C 22.983546 17.390507 23.847905 17.134766 25.041016 17.134766 z M 34.054688 18.265625 C 34.056575 18.265359 34.058658 18.265889 34.060547 18.265625 L 34.066406 18.273438 C 34.062698 18.270946 34.058391 18.268109 34.054688 18.265625 z M 15.576172 19.976562 C 15.414597 20.500957 15.263672 21.046177 15.263672 21.701172 C 15.263672 22.728672 15.574375 23.548967 15.855469 24.251953 C 16.136562 24.954939 16.376953 25.537297 16.376953 26.154297 C 16.376953 26.769185 16.097751 27.582251 15.6875 28.388672 A 0.50005 0.50005 0 0 0 15.546875 28.539062 C 15.339918 28.870127 15.181203 29.185187 15.037109 29.496094 C 14.530628 30.26249 13.973366 30.946556 13.552734 31.367188 C 13.101423 31.818499 12.090584 32.436667 11.273438 32.59375 C 11.233707 32.435694 11.191188 32.279188 11.158203 31.949219 C 11.071033 31.077284 11.066593 29.53676 11.433594 26.966797 C 11.788333 24.482663 12.940972 22.530563 14.191406 21.101562 C 14.719286 20.498302 15.069137 20.388997 15.576172 19.976562 z M 34.513672 20.072266 C 35.019992 20.487232 35.369432 20.596548 35.896484 21.203125 C 37.147155 22.642503 38.299335 24.607937 38.654297 27.111328 C 39.021348 29.699978 39.018888 31.253869 38.931641 32.132812 C 38.898551 32.466184 38.854331 32.623651 38.814453 32.783203 C 37.998594 32.624863 36.986331 32.003852 36.535156 31.548828 C 36.161147 31.171795 35.678825 30.586565 35.220703 29.919922 C 35.050102 29.478543 34.838137 29.023735 34.535156 28.539062 A 0.50005 0.50005 0 0 0 34.292969 28.335938 C 33.941581 27.594908 33.712891 26.861507 33.712891 26.294922 C 33.712891 25.671502 33.951357 25.084792 34.232422 24.376953 C 34.513487 23.669114 34.824219 22.842345 34.824219 21.808594 C 34.824219 21.148905 34.675486 20.600389 34.513672 20.072266 z M 23.722656 23.341797 C 23.722656 24.080797 24.321547 24.679688 25.060547 24.679688 C 25.799547 24.679688 26.398438 24.080797 26.398438 23.341797 L 23.722656 23.341797 z M 27.474609 27.052734 C 27.601874 27.63567 27.831937 28.189875 28.089844 28.697266 C 28.691828 29.881574 29.365234 30.931862 29.365234 31.8125 C 29.365234 32.694796 28.769574 33.300254 28.027344 34.037109 C 27.285114 34.773964 26.396484 35.643351 26.396484 36.972656 C 26.396484 38.65646 27.440896 39.698803 28.046875 40.6875 C 28.349865 41.181849 28.558719 41.654969 28.587891 42.230469 C 28.609624 42.659256 28.529918 43.163163 28.271484 43.787109 C 27.218838 43.967028 26.143546 44.080078 25.039062 44.080078 C 24.142491 44.080078 23.267616 43.996441 22.404297 43.876953 C 22.068322 43.173143 21.969976 42.655535 21.990234 42.255859 C 22.013844 41.79011 22.177692 41.408166 22.458984 40.949219 C 23.021568 40.031325 24.183594 38.866263 24.183594 36.972656 C 24.183594 35.419546 23.146507 34.420429 22.404297 33.683594 C 21.662087 32.946759 21.214844 32.471092 21.214844 31.8125 C 21.214844 31.160689 21.817137 30.151475 22.445312 28.927734 C 22.686801 28.457295 22.91922 27.922973 23.066406 27.347656 C 23.655881 27.686633 24.313435 27.896484 25.041016 27.896484 C 25.96302 27.896484 26.777556 27.568923 27.474609 27.052734 z M 14.474609 31.826172 C 14.476059 32.071489 14.485708 32.313089 14.527344 32.539062 C 14.681197 33.374082 15.081678 34.049324 15.537109 34.599609 C 15.356001 34.79549 15.082828 35.073881 14.660156 35.412109 C 14.039557 35.908723 13.238108 36.353601 12.535156 36.398438 C 12.163619 35.520264 11.822735 34.515632 11.572266 33.632812 C 12.701255 33.403777 13.701956 32.632028 14.259766 32.074219 C 14.325263 32.008721 14.405587 31.899837 14.474609 31.826172 z M 35.59375 31.984375 C 35.668507 32.065243 35.755463 32.182626 35.826172 32.253906 C 36.374479 32.806892 37.350684 33.565674 38.457031 33.810547 C 38.210815 34.653706 37.891519 35.579215 37.544922 36.398438 C 36.84245 36.353604 36.040667 35.90875 35.419922 35.412109 C 34.999189 35.075493 34.726562 34.797845 34.544922 34.601562 C 35.000203 34.051072 35.398774 33.374662 35.552734 32.539062 C 35.585131 32.363237 35.585284 32.171922 35.59375 31.984375 z M 10.71875 34.302734 C 10.96506 35.140339 11.277062 36.036345 11.632812 36.857422 C 11.276055 36.07973 10.944773 35.233816 10.71875 34.302734 z M 16.164062 35.349609 C 16.319662 35.456494 16.4351 35.513298 16.707031 35.785156 C 17.123865 36.201878 17.488281 36.752915 17.488281 37.287109 C 17.488281 37.580183 17.037399 38.43663 16.402344 39.330078 C 16.30769 39.463245 16.218756 39.61425 16.125 39.751953 C 15.962276 39.930407 15.826823 40.129401 15.728516 40.353516 C 15.526028 40.66434 15.319181 40.963528 15.121094 41.277344 C 15.107379 41.268955 15.09377 41.260375 15.080078 41.251953 C 14.891671 40.961334 14.703399 40.687488 14.294922 39.964844 C 13.78273 39.058715 13.341997 38.042108 13.101562 37.248047 C 13.937964 37.058852 14.705999 36.65681 15.285156 36.193359 C 15.811426 35.77223 15.976805 35.557406 16.164062 35.349609 z M 33.916016 35.349609 C 34.103345 35.557391 34.268584 35.772251 34.794922 36.193359 C 35.374154 36.656787 36.14233 37.058852 36.978516 37.248047 C 36.738082 38.042108 36.297348 39.058715 35.785156 39.964844 C 35.377407 40.686202 35.190052 40.959905 35.001953 41.25 C 34.987775 41.258724 34.973187 41.266702 34.958984 41.275391 C 34.54164 40.614231 34.114442 39.944473 33.677734 39.330078 C 33.042679 38.43663 32.591797 37.580183 32.591797 37.287109 C 32.591797 36.753555 32.956162 36.202041 33.373047 35.785156 C 33.645011 35.513192 33.760391 35.456585 33.916016 35.349609 z M 11.873047 37.388672 C 12.009792 37.668837 12.151481 37.928508 12.296875 38.160156 C 12.301695 38.172322 12.305666 38.185083 12.310547 38.197266 C 12.16276 37.938027 12.02005 37.682128 11.873047 37.388672 z M 37.029297 39.732422 C 37.018654 39.775054 37.011692 39.810554 37.001953 39.851562 C 36.983546 39.866441 36.963777 39.879721 36.945312 39.894531 C 36.974234 39.841088 37.000546 39.786431 37.029297 39.732422 z"/></svg>