<svg xmlns="http://www.w3.org/2000/svg"  viewBox="0 0 50 50" width="100px" height="100px"><path fill="#030000" d="M43.588,10.191l-11-8c-0.305-0.223-0.707-0.253-1.042-0.082C31.211,2.279,31,2.624,31,3v3H18.5 C11.607,6,6,11.607,6,18.5c0,9.056,7.296,12.286,7.606,12.419C13.73,30.973,13.864,31,14,31h11.793c0.553,0,1-0.447,1-1 c0-1.323-1.385-1.994-3.301-2.922C20.752,25.752,17,23.935,17,20c0-1.173,0.433-5,6-5h8v3c0,0.365,0.199,0.701,0.519,0.877 c0.32,0.175,0.71,0.161,1.019-0.033l11-7c0.279-0.178,0.452-0.482,0.463-0.812C44.01,10.7,43.855,10.386,43.588,10.191z"/><path fill="#030000" d="M35.394,19.081C35.27,19.027,35.136,19,35,19H23c-0.553,0-1,0.447-1,1 c0,1.329,1.412,1.999,3.366,2.926C28.166,24.253,32,26.071,32,30c0,1.173-0.36,5-5,5h-9v-3c0-0.365-0.199-0.701-0.519-0.877 c-0.32-0.175-0.709-0.162-1.019,0.033l-11,7C5.184,38.334,5.011,38.639,5,38.969c-0.01,0.331,0.145,0.646,0.412,0.84l11,8 C16.586,47.936,16.793,48,17,48c0.155,0,0.311-0.036,0.454-0.109C17.789,47.721,18,47.376,18,47v-3h12.5 C37.393,44,43,38.393,43,31.5C43,22.444,35.704,19.214,35.394,19.081z"/></svg>